# xmcd CD database file generated by OrangeCD 6.4
#
# Track frame offsets:
#	150
#	7956
#	21164
#	42046
#	59106
#	74462
#	90285
#	104278
#	120851
#	132554
#	146958
#	158709
#	170054
#
# Disc length: 2517 seconds
#
# Revision: 4
# Processed by: cddbd v1.5.2PL0 Copyright (c) Steve Scherf et al.
# Submitted via: OrangeCD 6.4
#
DISCID=af09d30d
DTITLE=Foley, Sue - Back To The Blues
DYEAR=2000
DGENRE=Electric Blues
TTITLE0=Lightnin' Boogie
TTITLE1=Come On
TTITLE2=Positively 4th Street
TTITLE3=If You Think I've Lost you
TTITLE4=I Feel So Good
TTITLE5=Tanya
TTITLE6=Me and My Chauffeur Blues
TTITLE7=Come Play With Me
TTITLE8=Can't Afford To Do It
TTITLE9=Make Me A Pallet On Your Floor
TTITLE10=Guitar Rumba
TTITLE11=The Leading Brand
TTITLE12=Gone Blind
EXTD=
EXTT0=
EXTT1=
EXTT2=
EXTT3=
EXTT4=
EXTT5=
EXTT6=
EXTT7=
EXTT8=
EXTT9=
EXTT10=
EXTT11=
EXTT12=
PLAYORDER=
